<?xml version="1.0" encoding="utf-8"?>
<!DOCTYPE svg PUBLIC "-//W3C//DTD SVG 1.1//EN" "http://www.w3.org/Graphics/SVG/1.1/DTD/svg11.dtd">
<svg version="1.1" id="Layer_1" xmlns="http://www.w3.org/2000/svg" xmlns:xlink="http://www.w3.org/1999/xlink" x="0px" y="0px"
width="2400px" height="2400px" viewBox="0 0 2400 2400" enable-background="new 0 0 2400 2400" xml:space="preserve">
<rect x="0" y="0" width="2400" height="2400" fill="rgb(255,255,255)" /><g transform="translate(192,192)"><g transform="translate(960,0) scale(0.192,0.192)"><g transform="" style="fill: rgb(53, 186, 246);">
<path d="M250,0c58.27,0,250,0,250,0s0,170.182,0,250c0,62.305,0,250,0,250s-174.219,0-250,0
	C111.881,500,0,388.021,0,250C0,111.963,111.881,0,250,0z"/>
</g></g><g transform="translate(1056,0) scale(0.96,0.96)"><g transform="" style="fill: rgb(53, 186, 246);">
<rect width="100" height="100"/>
</g></g><g transform="translate(1152,0) scale(0.192,0.192)"><g transform="" style="fill: rgb(53, 186, 246);">
<path d="M250,500c-58.271,0-250,0-250,0s0-170.207,0-250C0,187.676,0,0,0,0s174.261,0,250,0c138.064,0,250,111.929,250,250
	C500,388.064,388.064,500,250,500z"/>
</g></g><g transform="translate(864,96) scale(0.192,0.192)"><g transform="" style="fill: rgb(53, 186, 246);">
<path d="M500,250c0,58.266,0,250,0,250s-170.194,0-250-0.012c-62.324,0.012-250,0-250,0s0-174.241,0-249.994
	C0.006,111.931,111.929,0,249.994,0C388.064,0,500,111.93,500,250z"/>
</g></g><g transform="translate(768,192) scale(0.192,0.192)"><g transform="" style="fill: rgb(53, 186, 246);">
<g>
	<path d="M0,500h500V0C223.861,0.001,0,223.854,0,500z"/>
</g>
</g></g><g transform="translate(864,192) scale(0.96,0.96)"><g transform="" style="fill: rgb(53, 186, 246);">
<rect width="100" height="100"/>
</g></g><g transform="translate(1056,192) scale(0.192,0.192)"><g transform="" style="fill: rgb(53, 186, 246);">
<path d="M250,0c138.077,0,250,111.93,250,250c0,138.077-111.923,250-250,250C111.93,500,0,388.077,0,250C0,111.93,111.93,0,250,0z"
	/>
</g></g><g transform="translate(768,288) scale(0.96,0.96)"><g transform="" style="fill: rgb(53, 186, 246);">
<rect width="100" height="100"/>
</g></g><g transform="translate(864,288) scale(0.192,0.192)"><g transform="" style="fill: rgb(53, 186, 246);">
<g>
	<path d="M500,0H0v500C276.142,500,500,276.142,500,0z"/>
</g>
</g></g><g transform="translate(1152,288) scale(0.192,0.192)"><g transform="" style="fill: rgb(53, 186, 246);">
<path d="M500,250c0,58.266,0,250,0,250s-170.194,0-250-0.012c-62.324,0.012-250,0-250,0s0-174.241,0-249.994
	C0.006,111.931,111.929,0,249.994,0C388.064,0,500,111.93,500,250z"/>
</g></g><g transform="translate(768,384) scale(0.96,0.96)"><g transform="" style="fill: rgb(53, 186, 246);">
<rect width="100" height="100"/>
</g></g><g transform="translate(960,384) scale(0.192,0.192)"><g transform="" style="fill: rgb(53, 186, 246);">
<g>
	<path d="M0,500h500V0C223.861,0.001,0,223.854,0,500z"/>
</g>
</g></g><g transform="translate(1056,384) scale(0.96,0.96)"><g transform="" style="fill: rgb(53, 186, 246);">
<rect width="100" height="100"/>
</g></g><g transform="translate(1152,384) scale(0.96,0.96)"><g transform="" style="fill: rgb(53, 186, 246);">
<rect width="100" height="100"/>
</g></g><g transform="translate(768,480) scale(0.96,0.96)"><g transform="" style="fill: rgb(53, 186, 246);">
<rect width="100" height="100"/>
</g></g><g transform="translate(960,480) scale(0.96,0.96)"><g transform="" style="fill: rgb(53, 186, 246);">
<rect width="100" height="100"/>
</g></g><g transform="translate(1152,480) scale(0.96,0.96)"><g transform="" style="fill: rgb(53, 186, 246);">
<rect width="100" height="100"/>
</g></g><g transform="translate(768,576) scale(0.96,0.96)"><g transform="" style="fill: rgb(53, 186, 246);">
<rect width="100" height="100"/>
</g></g><g transform="translate(960,576) scale(0.96,0.96)"><g transform="" style="fill: rgb(53, 186, 246);">
<rect width="100" height="100"/>
</g></g><g transform="translate(1152,576) scale(0.96,0.96)"><g transform="" style="fill: rgb(53, 186, 246);">
<rect width="100" height="100"/>
</g></g><g transform="translate(768,672) scale(0.192,0.192)"><g transform="" style="fill: rgb(53, 186, 246);">
<path d="M0,250C0,191.729,0,0,0,0s170.201,0,250,0c62.324,0,250,0,250,0s0,174.261,0,250c0,138.064-111.936,250-250,250
	C111.929,500,0,388.064,0,250z"/>
</g></g><g transform="translate(960,672) scale(0.96,0.96)"><g transform="" style="fill: rgb(53, 186, 246);">
<rect width="100" height="100"/>
</g></g><g transform="translate(1056,672) scale(0.96,0.96)"><g transform="" style="fill: rgb(53, 186, 246);">
<rect width="100" height="100"/>
</g></g><g transform="translate(1152,672) scale(0.96,0.96)"><g transform="" style="fill: rgb(53, 186, 246);">
<rect width="100" height="100"/>
</g></g><g transform="translate(0,768) scale(0.192,0.192)"><g transform="" style="fill: rgb(53, 186, 246);">
<path d="M250,0c138.077,0,250,111.93,250,250c0,138.077-111.923,250-250,250C111.93,500,0,388.077,0,250C0,111.93,111.93,0,250,0z"
	/>
</g></g><g transform="translate(192,768) scale(0.192,0.192)"><g transform="" style="fill: rgb(53, 186, 246);">
<path d="M250,0c58.27,0,250,0,250,0s0,170.182,0,250c0,62.305,0,250,0,250s-174.219,0-250,0
	C111.881,500,0,388.021,0,250C0,111.963,111.881,0,250,0z"/>
</g></g><g transform="translate(288,768) scale(0.96,0.96)"><g transform="" style="fill: rgb(53, 186, 246);">
<rect width="100" height="100"/>
</g></g><g transform="translate(384,768) scale(0.96,0.96)"><g transform="" style="fill: rgb(53, 186, 246);">
<rect width="100" height="100"/>
</g></g><g transform="translate(480,768) scale(0.96,0.96)"><g transform="" style="fill: rgb(53, 186, 246);">
<rect width="100" height="100"/>
</g></g><g transform="translate(576,768) scale(0.192,0.192)"><g transform="" style="fill: rgb(53, 186, 246);">
<path d="M250,500c-58.271,0-250,0-250,0s0-170.207,0-250C0,187.676,0,0,0,0s174.261,0,250,0c138.064,0,250,111.929,250,250
	C500,388.064,388.064,500,250,500z"/>
</g></g><g transform="translate(864,768) scale(0.192,0.192)"><g transform="" style="fill: rgb(53, 186, 246);">
<g>
	<path d="M0,500h500V0C223.861,0.001,0,223.854,0,500z"/>
</g>
</g></g><g transform="translate(960,768) scale(0.192,0.192)"><g transform="" style="fill: rgb(53, 186, 246);">
<g>
	<path d="M500,0H0v500C276.142,500,500,276.142,500,0z"/>
</g>
</g></g><g transform="translate(1152,768) scale(0.96,0.96)"><g transform="" style="fill: rgb(53, 186, 246);">
<rect width="100" height="100"/>
</g></g><g transform="translate(1344,768) scale(0.192,0.192)"><g transform="" style="fill: rgb(53, 186, 246);">
<path d="M250,0c58.27,0,250,0,250,0s0,170.182,0,250c0,62.305,0,250,0,250s-174.219,0-250,0
	C111.881,500,0,388.021,0,250C0,111.963,111.881,0,250,0z"/>
</g></g><g transform="translate(1440,768) scale(0.96,0.96)"><g transform="" style="fill: rgb(53, 186, 246);">
<rect width="100" height="100"/>
</g></g><g transform="translate(1536,768) scale(0.96,0.96)"><g transform="" style="fill: rgb(53, 186, 246);">
<rect width="100" height="100"/>
</g></g><g transform="translate(1632,768) scale(0.96,0.96)"><g transform="" style="fill: rgb(53, 186, 246);">
<rect width="100" height="100"/>
</g></g><g transform="translate(1728,768) scale(0.192,0.192)"><g transform="" style="fill: rgb(53, 186, 246);">
<g>
	<path d="M0,0v500h500C500,223.853,276.142,0,0,0z"/>
</g>
</g></g><g transform="translate(96,864) scale(0.192,0.192)"><g transform="" style="fill: rgb(53, 186, 246);">
<path d="M250,0c138.077,0,250,111.93,250,250c0,138.077-111.923,250-250,250C111.93,500,0,388.077,0,250C0,111.93,111.93,0,250,0z"
	/>
</g></g><g transform="translate(288,864) scale(0.96,0.96)"><g transform="" style="fill: rgb(53, 186, 246);">
<rect width="100" height="100"/>
</g></g><g transform="translate(864,864) scale(0.96,0.96)"><g transform="" style="fill: rgb(53, 186, 246);">
<rect width="100" height="100"/>
</g></g><g transform="translate(1152,864) scale(0.192,0.192)"><g transform="" style="fill: rgb(53, 186, 246);">
<path d="M0,250C0,191.729,0,0,0,0s170.201,0,250,0c62.324,0,250,0,250,0s0,174.261,0,250c0,138.064-111.936,250-250,250
	C111.929,500,0,388.064,0,250z"/>
</g></g><g transform="translate(1440,864) scale(0.192,0.192)"><g transform="" style="fill: rgb(53, 186, 246);">
<path d="M0,250C0,191.729,0,0,0,0s170.201,0,250,0c62.324,0,250,0,250,0s0,174.261,0,250c0,138.064-111.936,250-250,250
	C111.929,500,0,388.064,0,250z"/>
</g></g><g transform="translate(1632,864) scale(0.192,0.192)"><g transform="" style="fill: rgb(53, 186, 246);">
<g>
	<path d="M500,500V0H0C0.001,276.142,223.853,500,500,500z"/>
</g>
</g></g><g transform="translate(1728,864) scale(0.96,0.96)"><g transform="" style="fill: rgb(53, 186, 246);">
<rect width="100" height="100"/>
</g></g><g transform="translate(1920,864) scale(0.192,0.192)"><g transform="" style="fill: rgb(53, 186, 246);">
<path d="M250,0c138.077,0,250,111.93,250,250c0,138.077-111.923,250-250,250C111.93,500,0,388.077,0,250C0,111.93,111.93,0,250,0z"
	/>
</g></g><g transform="translate(288,960) scale(0.192,0.192)"><g transform="" style="fill: rgb(53, 186, 246);">
<g>
	<path d="M500,500V0H0C0.001,276.142,223.853,500,500,500z"/>
</g>
</g></g><g transform="translate(384,960) scale(0.96,0.96)"><g transform="" style="fill: rgb(53, 186, 246);">
<rect width="100" height="100"/>
</g></g><g transform="translate(480,960) scale(0.96,0.96)"><g transform="" style="fill: rgb(53, 186, 246);">
<rect width="100" height="100"/>
</g></g><g transform="translate(576,960) scale(0.192,0.192)"><g transform="" style="fill: rgb(53, 186, 246);">
<path d="M250,500c-58.271,0-250,0-250,0s0-170.207,0-250C0,187.676,0,0,0,0s174.261,0,250,0c138.064,0,250,111.929,250,250
	C500,388.064,388.064,500,250,500z"/>
</g></g><g transform="translate(768,960) scale(0.192,0.192)"><g transform="" style="fill: rgb(53, 186, 246);">
<path d="M250,0c58.27,0,250,0,250,0s0,170.182,0,250c0,62.305,0,250,0,250s-174.219,0-250,0
	C111.881,500,0,388.021,0,250C0,111.963,111.881,0,250,0z"/>
</g></g><g transform="translate(864,960) scale(0.96,0.96)"><g transform="" style="fill: rgb(53, 186, 246);">
<rect width="100" height="100"/>
</g></g><g transform="translate(960,960) scale(0.96,0.96)"><g transform="" style="fill: rgb(53, 186, 246);">
<rect width="100" height="100"/>
</g></g><g transform="translate(1056,960) scale(0.192,0.192)"><g transform="" style="fill: rgb(53, 186, 246);">
<path d="M250,500c-58.271,0-250,0-250,0s0-170.207,0-250C0,187.676,0,0,0,0s174.261,0,250,0c138.064,0,250,111.929,250,250
	C500,388.064,388.064,500,250,500z"/>
</g></g><g transform="translate(1248,960) scale(0.192,0.192)"><g transform="" style="fill: rgb(53, 186, 246);">
<path d="M250,0c138.077,0,250,111.93,250,250c0,138.077-111.923,250-250,250C111.93,500,0,388.077,0,250C0,111.93,111.93,0,250,0z"
	/>
</g></g><g transform="translate(1536,960) scale(0.192,0.192)"><g transform="" style="fill: rgb(53, 186, 246);">
<path d="M500,250c0,58.266,0,250,0,250s-170.194,0-250-0.012c-62.324,0.012-250,0-250,0s0-174.241,0-249.994
	C0.006,111.931,111.929,0,249.994,0C388.064,0,500,111.93,500,250z"/>
</g></g><g transform="translate(1728,960) scale(0.96,0.96)"><g transform="" style="fill: rgb(53, 186, 246);">
<rect width="100" height="100"/>
</g></g><g transform="translate(1824,960) scale(0.192,0.192)"><g transform="" style="fill: rgb(53, 186, 246);">
<g>
	<path d="M0,0v500h500C500,223.853,276.142,0,0,0z"/>
</g>
</g></g><g transform="translate(192,1056) scale(0.192,0.192)"><g transform="" style="fill: rgb(53, 186, 246);">
<path d="M500,250c0,58.266,0,250,0,250s-170.194,0-250-0.012c-62.324,0.012-250,0-250,0s0-174.241,0-249.994
	C0.006,111.931,111.929,0,249.994,0C388.064,0,500,111.93,500,250z"/>
</g></g><g transform="translate(384,1056) scale(0.96,0.96)"><g transform="" style="fill: rgb(53, 186, 246);">
<rect width="100" height="100"/>
</g></g><g transform="translate(1440,1056) scale(0.192,0.192)"><g transform="" style="fill: rgb(53, 186, 246);">
<path d="M250,0c58.27,0,250,0,250,0s0,170.182,0,250c0,62.305,0,250,0,250s-174.219,0-250,0
	C111.881,500,0,388.021,0,250C0,111.963,111.881,0,250,0z"/>
</g></g><g transform="translate(1536,1056) scale(0.96,0.96)"><g transform="" style="fill: rgb(53, 186, 246);">
<rect width="100" height="100"/>
</g></g><g transform="translate(1632,1056) scale(0.96,0.96)"><g transform="" style="fill: rgb(53, 186, 246);">
<rect width="100" height="100"/>
</g></g><g transform="translate(1728,1056) scale(0.96,0.96)"><g transform="" style="fill: rgb(53, 186, 246);">
<rect width="100" height="100"/>
</g></g><g transform="translate(1824,1056) scale(0.96,0.96)"><g transform="" style="fill: rgb(53, 186, 246);">
<rect width="100" height="100"/>
</g></g><g transform="translate(1920,1056) scale(0.192,0.192)"><g transform="" style="fill: rgb(53, 186, 246);">
<path d="M250,500c-58.271,0-250,0-250,0s0-170.207,0-250C0,187.676,0,0,0,0s174.261,0,250,0c138.064,0,250,111.929,250,250
	C500,388.064,388.064,500,250,500z"/>
</g></g><g transform="translate(96,1152) scale(0.192,0.192)"><g transform="" style="fill: rgb(53, 186, 246);">
<path d="M250,0c58.27,0,250,0,250,0s0,170.182,0,250c0,62.305,0,250,0,250s-174.219,0-250,0
	C111.881,500,0,388.021,0,250C0,111.963,111.881,0,250,0z"/>
</g></g><g transform="translate(192,1152) scale(0.192,0.192)"><g transform="" style="fill: rgb(53, 186, 246);">
<g>
	<path d="M500,0H0v500C276.142,500,500,276.142,500,0z"/>
</g>
</g></g><g transform="translate(384,1152) scale(0.192,0.192)"><g transform="" style="fill: rgb(53, 186, 246);">
<g>
	<path d="M500,500V0H0C0.001,276.142,223.853,500,500,500z"/>
</g>
</g></g><g transform="translate(480,1152) scale(0.96,0.96)"><g transform="" style="fill: rgb(53, 186, 246);">
<rect width="100" height="100"/>
</g></g><g transform="translate(576,1152) scale(0.192,0.192)"><g transform="" style="fill: rgb(53, 186, 246);">
<path d="M250,500c-58.271,0-250,0-250,0s0-170.207,0-250C0,187.676,0,0,0,0s174.261,0,250,0c138.064,0,250,111.929,250,250
	C500,388.064,388.064,500,250,500z"/>
</g></g><g transform="translate(1056,1152) scale(0.192,0.192)"><g transform="" style="fill: rgb(53, 186, 246);">
<path d="M500,250c0,58.266,0,250,0,250s-170.194,0-250-0.012c-62.324,0.012-250,0-250,0s0-174.241,0-249.994
	C0.006,111.931,111.929,0,249.994,0C388.064,0,500,111.93,500,250z"/>
</g></g><g transform="translate(1248,1152) scale(0.192,0.192)"><g transform="" style="fill: rgb(53, 186, 246);">
<path d="M500,250c0,58.266,0,250,0,250s-170.194,0-250-0.012c-62.324,0.012-250,0-250,0s0-174.241,0-249.994
	C0.006,111.931,111.929,0,249.994,0C388.064,0,500,111.93,500,250z"/>
</g></g><g transform="translate(1536,1152) scale(0.192,0.192)"><g transform="" style="fill: rgb(53, 186, 246);">
<g>
	<path d="M500,500V0H0C0.001,276.142,223.853,500,500,500z"/>
</g>
</g></g><g transform="translate(1632,1152) scale(0.96,0.96)"><g transform="" style="fill: rgb(53, 186, 246);">
<rect width="100" height="100"/>
</g></g><g transform="translate(768,1248) scale(0.192,0.192)"><g transform="" style="fill: rgb(53, 186, 246);">
<path d="M250,0c138.077,0,250,111.93,250,250c0,138.077-111.923,250-250,250C111.93,500,0,388.077,0,250C0,111.93,111.93,0,250,0z"
	/>
</g></g><g transform="translate(960,1248) scale(0.192,0.192)"><g transform="" style="fill: rgb(53, 186, 246);">
<g>
	<path d="M0,500h500V0C223.861,0.001,0,223.854,0,500z"/>
</g>
</g></g><g transform="translate(1056,1248) scale(0.96,0.96)"><g transform="" style="fill: rgb(53, 186, 246);">
<rect width="100" height="100"/>
</g></g><g transform="translate(1152,1248) scale(0.96,0.96)"><g transform="" style="fill: rgb(53, 186, 246);">
<rect width="100" height="100"/>
</g></g><g transform="translate(1248,1248) scale(0.96,0.96)"><g transform="" style="fill: rgb(53, 186, 246);">
<rect width="100" height="100"/>
</g></g><g transform="translate(1344,1248) scale(0.192,0.192)"><g transform="" style="fill: rgb(53, 186, 246);">
<g>
	<path d="M0,0v500h500C500,223.853,276.142,0,0,0z"/>
</g>
</g></g><g transform="translate(1632,1248) scale(0.192,0.192)"><g transform="" style="fill: rgb(53, 186, 246);">
<g>
	<path d="M500,500V0H0C0.001,276.142,223.853,500,500,500z"/>
</g>
</g></g><g transform="translate(1728,1248) scale(0.192,0.192)"><g transform="" style="fill: rgb(53, 186, 246);">
<g>
	<path d="M0,0v500h500C500,223.853,276.142,0,0,0z"/>
</g>
</g></g><g transform="translate(1920,1248) scale(0.192,0.192)"><g transform="" style="fill: rgb(53, 186, 246);">
<path d="M250,0c138.077,0,250,111.93,250,250c0,138.077-111.923,250-250,250C111.93,500,0,388.077,0,250C0,111.93,111.93,0,250,0z"
	/>
</g></g><g transform="translate(864,1344) scale(0.192,0.192)"><g transform="" style="fill: rgb(53, 186, 246);">
<path d="M250,0c58.27,0,250,0,250,0s0,170.182,0,250c0,62.305,0,250,0,250s-174.219,0-250,0
	C111.881,500,0,388.021,0,250C0,111.963,111.881,0,250,0z"/>
</g></g><g transform="translate(960,1344) scale(0.192,0.192)"><g transform="" style="fill: rgb(53, 186, 246);">
<g>
	<path d="M500,0H0v500C276.142,500,500,276.142,500,0z"/>
</g>
</g></g><g transform="translate(1152,1344) scale(0.96,0.96)"><g transform="" style="fill: rgb(53, 186, 246);">
<rect width="100" height="100"/>
</g></g><g transform="translate(1344,1344) scale(0.96,0.96)"><g transform="" style="fill: rgb(53, 186, 246);">
<rect width="100" height="100"/>
</g></g><g transform="translate(1440,1344) scale(0.192,0.192)"><g transform="" style="fill: rgb(53, 186, 246);">
<path d="M250,500c-58.271,0-250,0-250,0s0-170.207,0-250C0,187.676,0,0,0,0s174.261,0,250,0c138.064,0,250,111.929,250,250
	C500,388.064,388.064,500,250,500z"/>
</g></g><g transform="translate(1728,1344) scale(0.96,0.96)"><g transform="" style="fill: rgb(53, 186, 246);">
<rect width="100" height="100"/>
</g></g><g transform="translate(1824,1344) scale(0.192,0.192)"><g transform="" style="fill: rgb(53, 186, 246);">
<path d="M250,500c-58.271,0-250,0-250,0s0-170.207,0-250C0,187.676,0,0,0,0s174.261,0,250,0c138.064,0,250,111.929,250,250
	C500,388.064,388.064,500,250,500z"/>
</g></g><g transform="translate(768,1440) scale(0.192,0.192)"><g transform="" style="fill: rgb(53, 186, 246);">
<path d="M500,250c0,58.266,0,250,0,250s-170.194,0-250-0.012c-62.324,0.012-250,0-250,0s0-174.241,0-249.994
	C0.006,111.931,111.929,0,249.994,0C388.064,0,500,111.93,500,250z"/>
</g></g><g transform="translate(1056,1440) scale(0.192,0.192)"><g transform="" style="fill: rgb(53, 186, 246);">
<path d="M250,0c58.27,0,250,0,250,0s0,170.182,0,250c0,62.305,0,250,0,250s-174.219,0-250,0
	C111.881,500,0,388.021,0,250C0,111.963,111.881,0,250,0z"/>
</g></g><g transform="translate(1152,1440) scale(0.96,0.96)"><g transform="" style="fill: rgb(53, 186, 246);">
<rect width="100" height="100"/>
</g></g><g transform="translate(1248,1440) scale(0.96,0.96)"><g transform="" style="fill: rgb(53, 186, 246);">
<rect width="100" height="100"/>
</g></g><g transform="translate(1344,1440) scale(0.192,0.192)"><g transform="" style="fill: rgb(53, 186, 246);">
<g>
	<path d="M500,0H0v500C276.142,500,500,276.142,500,0z"/>
</g>
</g></g><g transform="translate(1632,1440) scale(0.192,0.192)"><g transform="" style="fill: rgb(53, 186, 246);">
<g>
	<path d="M0,500h500V0C223.861,0.001,0,223.854,0,500z"/>
</g>
</g></g><g transform="translate(1728,1440) scale(0.192,0.192)"><g transform="" style="fill: rgb(53, 186, 246);">
<g>
	<path d="M500,0H0v500C276.142,500,500,276.142,500,0z"/>
</g>
</g></g><g transform="translate(768,1536) scale(0.96,0.96)"><g transform="" style="fill: rgb(53, 186, 246);">
<rect width="100" height="100"/>
</g></g><g transform="translate(864,1536) scale(0.192,0.192)"><g transform="" style="fill: rgb(53, 186, 246);">
<path d="M250,500c-58.271,0-250,0-250,0s0-170.207,0-250C0,187.676,0,0,0,0s174.261,0,250,0c138.064,0,250,111.929,250,250
	C500,388.064,388.064,500,250,500z"/>
</g></g><g transform="translate(1152,1536) scale(0.96,0.96)"><g transform="" style="fill: rgb(53, 186, 246);">
<rect width="100" height="100"/>
</g></g><g transform="translate(1440,1536) scale(0.192,0.192)"><g transform="" style="fill: rgb(53, 186, 246);">
<path d="M500,250c0,58.266,0,250,0,250s-170.194,0-250-0.012c-62.324,0.012-250,0-250,0s0-174.241,0-249.994
	C0.006,111.931,111.929,0,249.994,0C388.064,0,500,111.93,500,250z"/>
</g></g><g transform="translate(1632,1536) scale(0.96,0.96)"><g transform="" style="fill: rgb(53, 186, 246);">
<rect width="100" height="100"/>
</g></g><g transform="translate(1824,1536) scale(0.192,0.192)"><g transform="" style="fill: rgb(53, 186, 246);">
<path d="M250,0c138.077,0,250,111.93,250,250c0,138.077-111.923,250-250,250C111.93,500,0,388.077,0,250C0,111.93,111.93,0,250,0z"
	/>
</g></g><g transform="translate(768,1632) scale(0.96,0.96)"><g transform="" style="fill: rgb(53, 186, 246);">
<rect width="100" height="100"/>
</g></g><g transform="translate(1152,1632) scale(0.192,0.192)"><g transform="" style="fill: rgb(53, 186, 246);">
<path d="M0,250C0,191.729,0,0,0,0s170.201,0,250,0c62.324,0,250,0,250,0s0,174.261,0,250c0,138.064-111.936,250-250,250
	C111.929,500,0,388.064,0,250z"/>
</g></g><g transform="translate(1440,1632) scale(0.192,0.192)"><g transform="" style="fill: rgb(53, 186, 246);">
<path d="M0,250C0,191.729,0,0,0,0s170.201,0,250,0c62.324,0,250,0,250,0s0,174.261,0,250c0,138.064-111.936,250-250,250
	C111.929,500,0,388.064,0,250z"/>
</g></g><g transform="translate(1632,1632) scale(0.192,0.192)"><g transform="" style="fill: rgb(53, 186, 246);">
<g>
	<path d="M500,500V0H0C0.001,276.142,223.853,500,500,500z"/>
</g>
</g></g><g transform="translate(1728,1632) scale(0.192,0.192)"><g transform="" style="fill: rgb(53, 186, 246);">
<g>
	<path d="M0,0v500h500C500,223.853,276.142,0,0,0z"/>
</g>
</g></g><g transform="translate(768,1728) scale(0.192,0.192)"><g transform="" style="fill: rgb(53, 186, 246);">
<path d="M0,250C0,191.729,0,0,0,0s170.201,0,250,0c62.324,0,250,0,250,0s0,174.261,0,250c0,138.064-111.936,250-250,250
	C111.929,500,0,388.064,0,250z"/>
</g></g><g transform="translate(1056,1728) scale(0.192,0.192)"><g transform="" style="fill: rgb(53, 186, 246);">
<path d="M250,0c138.077,0,250,111.93,250,250c0,138.077-111.923,250-250,250C111.93,500,0,388.077,0,250C0,111.93,111.93,0,250,0z"
	/>
</g></g><g transform="translate(1248,1728) scale(0.192,0.192)"><g transform="" style="fill: rgb(53, 186, 246);">
<path d="M250,0c138.077,0,250,111.93,250,250c0,138.077-111.923,250-250,250C111.93,500,0,388.077,0,250C0,111.93,111.93,0,250,0z"
	/>
</g></g><g transform="translate(1536,1728) scale(0.192,0.192)"><g transform="" style="fill: rgb(53, 186, 246);">
<path d="M500,250c0,58.266,0,250,0,250s-170.194,0-250-0.012c-62.324,0.012-250,0-250,0s0-174.241,0-249.994
	C0.006,111.931,111.929,0,249.994,0C388.064,0,500,111.93,500,250z"/>
</g></g><g transform="translate(1728,1728) scale(0.96,0.96)"><g transform="" style="fill: rgb(53, 186, 246);">
<rect width="100" height="100"/>
</g></g><g transform="translate(864,1824) scale(0.192,0.192)"><g transform="" style="fill: rgb(53, 186, 246);">
<path d="M250,0c138.077,0,250,111.93,250,250c0,138.077-111.923,250-250,250C111.93,500,0,388.077,0,250C0,111.93,111.93,0,250,0z"
	/>
</g></g><g transform="translate(1440,1824) scale(0.192,0.192)"><g transform="" style="fill: rgb(53, 186, 246);">
<path d="M250,0c58.27,0,250,0,250,0s0,170.182,0,250c0,62.305,0,250,0,250s-174.219,0-250,0
	C111.881,500,0,388.021,0,250C0,111.963,111.881,0,250,0z"/>
</g></g><g transform="translate(1536,1824) scale(0.96,0.96)"><g transform="" style="fill: rgb(53, 186, 246);">
<rect width="100" height="100"/>
</g></g><g transform="translate(1728,1824) scale(0.96,0.96)"><g transform="" style="fill: rgb(53, 186, 246);">
<rect width="100" height="100"/>
</g></g><g transform="translate(768,1920) scale(0.192,0.192)"><g transform="" style="fill: rgb(53, 186, 246);">
<path d="M250,0c138.077,0,250,111.93,250,250c0,138.077-111.923,250-250,250C111.93,500,0,388.077,0,250C0,111.93,111.93,0,250,0z"
	/>
</g></g><g transform="translate(960,1920) scale(0.192,0.192)"><g transform="" style="fill: rgb(53, 186, 246);">
<path d="M250,0c58.27,0,250,0,250,0s0,170.182,0,250c0,62.305,0,250,0,250s-174.219,0-250,0
	C111.881,500,0,388.021,0,250C0,111.963,111.881,0,250,0z"/>
</g></g><g transform="translate(1056,1920) scale(0.192,0.192)"><g transform="" style="fill: rgb(53, 186, 246);">
<path d="M250,500c-58.271,0-250,0-250,0s0-170.207,0-250C0,187.676,0,0,0,0s174.261,0,250,0c138.064,0,250,111.929,250,250
	C500,388.064,388.064,500,250,500z"/>
</g></g><g transform="translate(1248,1920) scale(0.192,0.192)"><g transform="" style="fill: rgb(53, 186, 246);">
<path d="M250,0c138.077,0,250,111.93,250,250c0,138.077-111.923,250-250,250C111.93,500,0,388.077,0,250C0,111.93,111.93,0,250,0z"
	/>
</g></g><g transform="translate(1536,1920) scale(0.192,0.192)"><g transform="" style="fill: rgb(53, 186, 246);">
<path d="M0,250C0,191.729,0,0,0,0s170.201,0,250,0c62.324,0,250,0,250,0s0,174.261,0,250c0,138.064-111.936,250-250,250
	C111.929,500,0,388.064,0,250z"/>
</g></g><g transform="translate(1728,1920) scale(0.192,0.192)"><g transform="" style="fill: rgb(53, 186, 246);">
<g>
	<path d="M500,500V0H0C0.001,276.142,223.853,500,500,500z"/>
</g>
</g></g><g transform="translate(1824,1920) scale(0.192,0.192)"><g transform="" style="fill: rgb(53, 186, 246);">
<path d="M250,500c-58.271,0-250,0-250,0s0-170.207,0-250C0,187.676,0,0,0,0s174.261,0,250,0c138.064,0,250,111.929,250,250
	C500,388.064,388.064,500,250,500z"/>
</g></g><g transform="translate(0,0) scale(6.72, 6.72)"><g transform="" style="fill: rgb(53, 186, 246);">
<g>
	<path style="fill:none;" d="M65.859,15.008H34.141c-4.082,0-7.869,1.258-10.979,3.398c-2.419,1.665-4.428,3.864-5.848,6.421
		C15.838,27.484,15,30.526,15,33.758v32.471c0,10.344,8.586,18.76,19.145,18.76L50,84.992l15.855-0.004
		C76.414,84.988,85,76.572,85,66.229V33.758C85,23.419,76.414,15.008,65.859,15.008z"/>
	<path d="M65.859,0.008H34.141h0C18.683,0.008,5.587,10.221,1.4,24.18c-0.433,1.444-0.771,2.928-1.006,4.445
		C0.135,30.299,0,32.013,0,33.758v32.471c0,18.619,15.32,33.76,34.141,33.76L50,99.992l15.859-0.004
		c18.82,0,34.141-15.141,34.141-33.76V33.758C100,15.148,84.68,0.008,65.859,0.008z M85,66.229c0,10.344-8.586,18.76-19.145,18.76
		L50,84.992l-15.855-0.004C23.586,84.988,15,76.572,15,66.229V33.758c0-3.231,0.838-6.273,2.313-8.931
		c1.42-2.557,3.429-4.756,5.848-6.421c3.11-2.141,6.897-3.398,10.979-3.398h31.719C76.414,15.008,85,23.419,85,33.758V66.229z"/>
</g>
</g></g><g transform="translate(1344,0) scale(6.72, 6.72)"><g transform="" style="fill: rgb(53, 186, 246);">
<g>
	<path style="fill:none;" d="M65.859,15.008H34.141c-4.082,0-7.869,1.258-10.979,3.398c-2.419,1.665-4.428,3.864-5.848,6.421
		C15.838,27.484,15,30.526,15,33.758v32.471c0,10.344,8.586,18.76,19.145,18.76L50,84.992l15.855-0.004
		C76.414,84.988,85,76.572,85,66.229V33.758C85,23.419,76.414,15.008,65.859,15.008z"/>
	<path d="M65.859,0.008H34.141h0C18.683,0.008,5.587,10.221,1.4,24.18c-0.433,1.444-0.771,2.928-1.006,4.445
		C0.135,30.299,0,32.013,0,33.758v32.471c0,18.619,15.32,33.76,34.141,33.76L50,99.992l15.859-0.004
		c18.82,0,34.141-15.141,34.141-33.76V33.758C100,15.148,84.68,0.008,65.859,0.008z M85,66.229c0,10.344-8.586,18.76-19.145,18.76
		L50,84.992l-15.855-0.004C23.586,84.988,15,76.572,15,66.229V33.758c0-3.231,0.838-6.273,2.313-8.931
		c1.42-2.557,3.429-4.756,5.848-6.421c3.11-2.141,6.897-3.398,10.979-3.398h31.719C76.414,15.008,85,23.419,85,33.758V66.229z"/>
</g>
</g></g><g transform="translate(0,1344) scale(6.72, 6.72)"><g transform="" style="fill: rgb(53, 186, 246);">
<g>
	<path style="fill:none;" d="M65.859,15.008H34.141c-4.082,0-7.869,1.258-10.979,3.398c-2.419,1.665-4.428,3.864-5.848,6.421
		C15.838,27.484,15,30.526,15,33.758v32.471c0,10.344,8.586,18.76,19.145,18.76L50,84.992l15.855-0.004
		C76.414,84.988,85,76.572,85,66.229V33.758C85,23.419,76.414,15.008,65.859,15.008z"/>
	<path d="M65.859,0.008H34.141h0C18.683,0.008,5.587,10.221,1.4,24.18c-0.433,1.444-0.771,2.928-1.006,4.445
		C0.135,30.299,0,32.013,0,33.758v32.471c0,18.619,15.32,33.76,34.141,33.76L50,99.992l15.859-0.004
		c18.82,0,34.141-15.141,34.141-33.76V33.758C100,15.148,84.68,0.008,65.859,0.008z M85,66.229c0,10.344-8.586,18.76-19.145,18.76
		L50,84.992l-15.855-0.004C23.586,84.988,15,76.572,15,66.229V33.758c0-3.231,0.838-6.273,2.313-8.931
		c1.42-2.557,3.429-4.756,5.848-6.421c3.11-2.141,6.897-3.398,10.979-3.398h31.719C76.414,15.008,85,23.419,85,33.758V66.229z"/>
</g>
</g></g><g transform="translate(192,192) scale(2.88, 2.88)"><g transform="" style="fill: rgb(53, 186, 246);">
<g>
	<g id="XMLID_1_">
		<g>
			<path d="M27.351,100c-15.09,0-27.365-12.032-27.365-26.808V26.794c0-4.616,1.2-8.96,3.301-12.761
				c2.029-3.658,4.901-6.802,8.36-9.174C16.09,1.801,21.506,0,27.336,0h45.327c15.076,0,27.351,12.018,27.351,26.793v46.398
				c0,14.775-12.274,26.808-27.351,26.808H50H27.351z"/>
		</g>
		<g>
		</g>
	</g>
</g>
</g></g><g transform="translate(1536,192) scale(2.88, 2.88)"><g transform="" style="fill: rgb(53, 186, 246);">
<g>
	<g id="XMLID_1_">
		<g>
			<path d="M27.351,100c-15.09,0-27.365-12.032-27.365-26.808V26.794c0-4.616,1.2-8.96,3.301-12.761
				c2.029-3.658,4.901-6.802,8.36-9.174C16.09,1.801,21.506,0,27.336,0h45.327c15.076,0,27.351,12.018,27.351,26.793v46.398
				c0,14.775-12.274,26.808-27.351,26.808H50H27.351z"/>
		</g>
		<g>
		</g>
	</g>
</g>
</g></g><g transform="translate(192,1536) scale(2.88, 2.88)"><g transform="" style="fill: rgb(53, 186, 246);">
<g>
	<g id="XMLID_1_">
		<g>
			<path d="M27.351,100c-15.09,0-27.365-12.032-27.365-26.808V26.794c0-4.616,1.2-8.96,3.301-12.761
				c2.029-3.658,4.901-6.802,8.36-9.174C16.09,1.801,21.506,0,27.336,0h45.327c15.076,0,27.351,12.018,27.351,26.793v46.398
				c0,14.775-12.274,26.808-27.351,26.808H50H27.351z"/>
		</g>
		<g>
		</g>
	</g>
</g>
</g></g></g></svg>